<svg width="61" height="60" viewBox="0 0 61 60" fill="none" xmlns="http://www.w3.org/2000/svg"><path d="M17.2253 24.3635C16.9741 24.3571 16.7221 24.3539 16.4669 24.3539C9.31031 24.3539 0.500008 29.8808 0.500008 29.8808C0.500008 29.8808 9.31031 35.4076 16.4669 35.4076C16.6885 35.4076 16.9085 35.4052 17.1269 35.4004C16.9453 35.5732 16.7645 35.7501 16.5845 35.9301C11.5241 40.9905 9.20229 51.1289 9.20229 51.1289C9.20229 51.1289 19.3407 48.8071 24.4011 43.7467C24.5579 43.5899 24.7115 43.4323 24.8635 43.2747C24.8571 43.5259 24.854 43.7779 24.854 44.0331C24.854 51.1897 30.3808 60 30.3808 60C30.3808 60 35.9076 51.1897 35.9076 44.0331C35.9076 43.8115 35.9052 43.5915 35.9004 43.3731C36.0732 43.5547 36.2501 43.7355 36.4301 43.9155C41.4905 48.9759 51.6289 51.2977 51.6289 51.2977C51.6289 51.2977 49.3071 41.1593 44.2467 36.0989C44.0899 35.9421 43.9323 35.7885 43.7747 35.6364C44.0259 35.6429 44.2779 35.646 44.5331 35.646C51.6897 35.646 60.5 30.1192 60.5 30.1192C60.5 30.1192 51.6897 24.5924 44.5331 24.5924C44.3115 24.5924 44.0915 24.5948 43.8731 24.5996C44.0547 24.4267 44.2355 24.2499 44.4155 24.0699C49.4759 19.0095 51.7977 8.87112 51.7977 8.87112C51.7977 8.87112 41.6593 11.1929 36.5989 16.2533C36.4421 16.4101 36.2885 16.5677 36.1365 16.7253C36.1429 16.4741 36.1461 16.2221 36.1461 15.9669C36.1461 8.81031 30.6192 -3.8147e-06 30.6192 -3.8147e-06C30.6192 -3.8147e-06 25.0924 8.81031 25.0924 15.9669C25.0924 16.1885 25.0948 16.4085 25.0996 16.6269C24.9268 16.4453 24.7499 16.2645 24.5699 16.0845C19.5095 11.0241 9.37112 8.70229 9.37112 8.70229C9.37112 8.70229 11.6929 18.8407 16.7533 23.9011C16.9101 24.0579 17.0677 24.2115 17.2253 24.3635ZM30.5 23.9203C33.8579 23.9203 36.5797 26.6421 36.5797 30C36.5797 33.3579 33.8579 36.0797 30.5 36.0797C27.1421 36.0797 24.4203 33.3579 24.4203 30C24.4203 26.6421 27.1421 23.9203 30.5 23.9203Z" fill="#EF6820"></path></svg>
